HIERARCHY
ROOT Hips
{
  OFFSET 0 0 0
  CHANNELS 6 Xposition Yposition Zposition Zrotation Xrotation Yrotation
  JOINT Spine
  {
    OFFSET 0 10.1816 0.1315
    CHANNELS 3 Zrotation Xrotation Yrotation
    JOINT Spine1
    {
      OFFSET 0 10.0835 -1.0008
      CHANNELS 3 Zrotation Xrotation Yrotation
      JOINT Spine2
      {
        OFFSET 0 9.1 -1.3734
        CHANNELS 3 Zrotation Xrotation Yrotation
        JOINT Neck
        {
          OFFSET 0 16.6717 -2.5162
          CHANNELS 3 Zrotation Xrotation Yrotation
          JOINT Head
          {
            OFFSET 0 9.6179 1.685
            CHANNELS 3 Zrotation Xrotation Yrotation
            End Site
            {
              OFFSET 0 0 0
            }
          }
        }
        JOINT LeftShoulder
        {
          OFFSET 4.5704 10.946 -2.628
          CHANNELS 3 Zrotation Xrotation Yrotation
          JOINT LeftArm
          {
            OFFSET 10.5924 -0.5246 -2.2321
            CHANNELS 3 Zrotation Xrotation Yrotation
            JOINT LeftForeArm
            {
              OFFSET 27.8415 -0.0001 0
              CHANNELS 3 Zrotation Xrotation Yrotation
              JOINT LeftHand
              {
                OFFSET 28.3288 0 0
                CHANNELS 3 Zrotation Xrotation Yrotation
                End Site
                {
                  OFFSET 0 0 0
                }
              }
            }
          }
        }
        JOINT RightShoulder
        {
          OFFSET -4.57 10.9462 -2.628
          CHANNELS 3 Zrotation Xrotation Yrotation
          JOINT RightArm
          {
            OFFSET -10.5928 -0.5248 -2.2321
            CHANNELS 3 Zrotation Xrotation Yrotation
            JOINT RightForeArm
            {
              OFFSET -27.8415 0 0
              CHANNELS 3 Zrotation Xrotation Yrotation
              JOINT RightHand
              {
                OFFSET -28.3288 0 0.0001
                CHANNELS 3 Zrotation Xrotation Yrotation
                End Site
                {
                  OFFSET 0 0 0
                }
              }
            }
          }
        }
      }
    }
  }
  JOINT LeftUpLeg
  {
    OFFSET 8.2078 -6.7517 -1.5996
    CHANNELS 3 Zrotation Xrotation Yrotation
    JOINT LeftLeg
    {
      OFFSET 0 -44.3705 0.2846
      CHANNELS 3 Zrotation Xrotation Yrotation
      JOINT LeftFoot
      {
        OFFSET 0 -44.4279 -2.9822
        CHANNELS 3 Zrotation Xrotation Yrotation
        JOINT LeftToeBase
        {
          OFFSET 0 -8.7287 10.7106
          CHANNELS 3 Zrotation Xrotation Yrotation
          End Site
          {
            OFFSET 0 0 0
          }
        }
      }
    }
  }
  JOINT RightUpLeg
  {
    OFFSET -8.2078 -6.7517 -1.5996
    CHANNELS 3 Zrotation Xrotation Yrotation
    JOINT RightLeg
    {
      OFFSET 0 -44.3705 0.2862
      CHANNELS 3 Zrotation Xrotation Yrotation
      JOINT RightFoot
      {
        OFFSET 0 -44.4277 -2.9838
        CHANNELS 3 Zrotation Xrotation Yrotation
        JOINT RightToeBase
        {
          OFFSET 0 -8.7287 10.7106
          CHANNELS 3 Zrotation Xrotation Yrotation
          End Site
          {
            OFFSET 0 0 0
          }
        }
      }
    }
  }
}
MOTION
Frames:	17
Frame Time:	0.0333333
3.07417 101.515 1.45861 4.77213 0.778249 -0.610722 -2.08394 0.25238 -0.481578 -0.474235 -0.079379 -0.360725 -0.471484 -0.0846362 -0.372609 -1.42635 -1.01273 0.243506 -4.58431 -12.0964 0.16642 -10.8899 4.27058 -11.515 -53.9202 20.074 -5.15525 -0.000204112 5.69097e-06 -18.0301 26.1995 -17.6062 15.4813 11.2954 1.21946 0.857531 61.5888 31.6984 -6.068 -4.47627e-06 7.31404e-07 30.2974 -10.2229 -18.9421 -0.341729 -6.43367 -12.4645 -2.75275 -3.53834 20.0707 2.01188 4.3301 -8.46201 0.0963951 -2.21004e-07 -0.00242422 4.26486e-07 -8.66004 -30.693 -11.9932 -1.16734 54.6591 1.24865 -9.67082 10.412 1.36678 0.279753 -16.7321 0.0798026 
2.98485 101.596 5.08659 3.92818 -1.72002 -0.303792 -1.95032 0.504078 -1.16698 -0.333015 0.160629 -0.911711 -0.323756 0.146732 -0.919207 -1.66664 -1.58529 0.171975 -4.10653 -9.54979 -0.503592 -10.9626 4.43709 -11.759 -51.4838 20.8181 -7.47569 -0.000199749 4.33904e-06 -22.127 22.6622 -17.4334 13.8352 11.1172 1.09968 0.568104 63.2819 30.4614 -8.23657 5.66114e-06 9.84685e-07 27.2146 -8.28317 -18.5004 -3.45541 -5.43151 -7.75579 -2.29547 -3.11736 21.0735 -0.509953 5.76086 -11.473 0.248784 -1.87187e-07 -0.00352377 2.76609e-07 -6.99174 -28.6643 -10.3612 0.890534 43.3647 -3.70983 -9.55623 8.09803 1.16834 2.50013 -13.6732 0.53108 
2.76956 101.154 8.89693 3.95072 -2.10035 0.315204 -2.41649 0.423484 -1.79912 -0.432905 0.058212 -1.31083 -0.41373 0.0345655 -1.31798 -1.69546 -1.87897 0.120095 -3.67938 -8.40074 -0.857468 -10.983 4.50496 -11.8832 -49.435 20.8386 -8.18564 -0.000210952 -1.58082e-06 -26.7838 20.2421 -16.725 13.4081 11.0547 1.05299 0.453381 64.6043 29.656 -10.2231 -2.11898e-05 -8.63091e-06 26.0192 -6.96587 -17.9422 -5.09574 -5.48971 -5.50187 -1.49316 -2.50349 22.6059 -2.47148 6.88581 -14.7056 0.465725 -9.91393e-07 -0.00999069 -1.8047e-06 -6.41064 -27.3776 -9.78122 1.60274 29.4606 -6.6308 -11.1693 4.40269 1.0141 -1.30392e-06 -1.33028 4.88569e-06 
2.45193 100.297 13.0587 4.58527 -1.77648 0.90938 -3.28822 0.143206 -2.33198 -0.72219 -0.264834 -1.57399 -0.689984 -0.298515 -1.58553 -1.60235 -1.99091 0.0850238 -3.34855 -8.27015 -0.975696 -10.9761 4.50208 -11.8959 -47.8687 20.2725 -7.84239 -0.000194507 -5.74913e-06 -31.2084 19.0904 -15.7874 13.4667 11.0742 1.05426 0.448631 65.6019 29.2522 -11.8905 -4.98064e-06 -6.7388e-06 25.8548 -6.1335 -17.4934 -5.53137 -5.81858 -3.72742 0.150043 -2.11477 24.0809 -4.45466 7.22276 -18.121 0.75828 -0.00822221 0.00354349 3.22133e-06 -6.72832 -25.8458 -10.5465 1.23388 14.3025 -5.5051 -9.22819 1.84636 0.590523 -3.06096e-07 0.262147 4.31454e-06 
1.99189 98.9515 17.6767 5.7278 -1.95114 1.48646 -4.35691 -0.172923 -2.77303 -1.1049 -0.644154 -1.73349 -1.05824 -0.686929 -1.75405 -1.49591 -2.0378 0.0633268 -3.19561 -8.72376 -0.981513 -10.9728 4.46087 -11.8011 -46.9001 19.3226 -7.1242 -0.000222491 8.14793e-06 -34.5006 19.1014 -15.0001 13.1522 11.1276 1.07343 0.480936 66.2761 29.0708 -13.0323 -1.358e-05 -6.17973e-06 25.7299 -5.62522 -17.2228 -5.05104 -6.13535 -1.35956 1.43632 -2.63383 26.1728 -5.91706 8.29602 -22.1796 1.2923 -2.20133e-08 -0.0540666 1.8503e-06 -7.88029 -26.6249 -12.4977 0.364933 6.91777 -1.7208 -7.07225 -3.34467 0.199197 1.96848e-07 -0.0957254 1.65007e-06 
1.49796 97.8786 22.198 6.49744 -1.97056 1.98415 -5.19783 -0.375438 -3.05682 -1.42848 -0.910967 -1.84345 -1.36931 -0.961009 -1.87429 -1.47139 -2.12979 0.0601535 -3.30925 -9.3332 -0.954815 -11.0014 4.41254 -11.6057 -46.6097 18.2947 -6.68114 -0.000207787 2.26418e-06 -36.0116 19.7549 -14.7265 12.0527 11.1571 1.0813 0.487303 66.5916 28.721 -13.4727 3.39968e-06 -2.11791e-06 24.8211 -5.28493 -16.9205 -3.96638 -5.93275 1.82931 1.95563 -3.62874 26.2 -6.53114 10.0295 -25.1512 1.81101 4.67502e-07 -0.211184 -8.20109e-07 -8.09478 -26.7146 -13.647 0.195051 1.38508 2.33863 -11.3006 -9.32966 -0.669746 -3.61431e-06 0.0355629 1.65374e-06 
1.06635 97.087 26.498 6.63796 -1.96719 2.21311 -5.27164 -0.403759 -3.14306 -1.54708 -0.971848 -1.93947 -1.48112 -1.02635 -1.97599 -1.53493 -2.30587 0.0887331 -3.71661 -9.87854 -0.841703 -11.064 4.37347 -11.3469 -47.0968 17.4051 -6.67297 -0.000214712 6.69551e-06 -35.6238 20.216 -15.1143 10.3942 11.1319 1.06592 0.44705 66.5595 27.9595 -13.2355 -1.01636e-05 -4.84117e-06 22.97 -5.12119 -16.4916 -2.62546 -5.57288 5.33564 2.48839 -4.01759 25.2428 -6.55244 14.014 -27.576 2.83796 -1.71561e-06 -1.6581 5.66697e-07 -8.58199 -28.0692 -12.9187 0.425779 2.67221 2.08887 -10.2251 -11.1141 -1.02469 -7.33648e-06 -0.0123771 2.78976e-06 
0.618681 96.5923 30.8941 6.24413 -2.24272 2.06436 -4.52181 -0.292267 -3.05633 -1.40131 -0.853292 -2.01928 -1.33606 -0.908511 -2.05285 -1.59753 -2.54305 0.159758 -4.31646 -10.3421 -0.504204 -11.1273 4.3399 -11.1008 -48.4679 16.6839 -6.75992 -0.000208157 -8.79918e-07 -33.6106 19.5958 -15.9673 8.59587 11.0686 1.03838 0.389578 66.2715 26.9197 -12.552 4.42345e-06 9.7361e-06 20.6938 -5.22275 -16.163 -1.44081 -4.65195 7.19603 3.20824 -3.73962 27.1741 -7.5588 13.1882 -25.0532 2.34133 1.0167e-06 -7.42461 -5.01857e-07 -8.86195 -30.9216 -10.9634 0.712765 9.90877 -0.536495 -4.55673 -6.23648 -0.0581994 4.74767e-07 0.00513313 -4.78573e-06 
-0.023707 96.5961 35.6811 5.16498 -2.44385 1.69801 -3.30831 -0.115282 -2.88765 -1.03785 -0.651277 -2.0425 -0.979326 -0.703043 -2.0656 -1.55069 -2.81074 0.268973 -4.87342 -10.7927 0.127765 -11.1422 4.28969 -10.9337 -50.7129 16.1064 -6.51383 -0.000191668 -2.77276e-07 -30.3334 17.3789 -16.775 6.91806 11.0155 1.02538 0.37904 65.8179 26.0249 -11.6893 -6.3944e-06 2.18022e-06 18.8462 -5.56253 -16.2231 -0.76603 -3.24257 8.85208 3.94046 -2.68403 28.7493 -7.89371 10.3683 -18.5879 0.429277 7.18312e-07 -16.3488 -7.95844e-07 -6.9189 -31.8932 -9.28103 0.465008 15.2923 0.421143 -3.7136 4.16899 0.534108 5.58695e-07 -0.00513022 2.39079e-07 
-0.731627 97.0035 40.4982 3.40322 -2.29042 1.05593 -1.85243 0.0897372 -2.60577 -0.544136 -0.417909 -1.94997 -0.496094 -0.462021 -1.95955 -1.35838 -3.10091 0.389838 -5.13003 -11.2492 0.933604 -11.0824 4.1997 -10.8498 -53.5863 15.8061 -5.81288 -0.000217669 5.59129e-06 -26.0936 13.8485 -16.9096 5.53962 11.0122 1.05002 0.471911 65.2102 25.7156 -10.7929 3.31369e-06 2.41802e-06 18.1463 -5.95285 -16.6503 -0.724945 -2.03384 9.38985 4.32559 -0.63156 30.4202 -7.60598 7.95298 -7.81255 -0.244183 -0.0118557 -29.3999 -0.0058168 -3.20149 -30.1402 -6.96295 -0.660037 15.6855 2.2191 -2.76948 12.6502 0.685802 -3.1706e-07 0.0124774 -1.47303e-06 
-1.20434 97.3576 45.0384 1.48091 -2.33801 -0.210145 -0.469394 0.30416 -2.19449 -0.0163403 -0.187415 -1.71128 0.0200963 -0.220917 -1.70897 -1.08431 -3.41103 0.480104 -4.99511 -11.6072 1.63219 -10.9697 4.07275 -10.8001 -56.6518 16.0266 -4.88158 -0.000210846 -1.36306e-06 -21.1526 10.1385 -15.8445 4.71393 11.0627 1.11179 0.66284 64.4201 26.1794 -9.86717 8.16264e-06 7.34198e-06 18.7235 -6.17296 -17.0698 -1.11347 -1.49022 9.01254 4.29463 1.20163 32.3931 -5.39475 6.81113 8.10953 -0.753049 -1.0795 -46.8366 -0.781621 -0.186027 -29.31 -2.96855 -0.166363 19.2064 0.57794 -2.65527 12.3531 0.66736 1.17111e-08 -0.0567239 4.26581e-07 
-1.56105 97.6291 49.5807 -0.106056 -2.9255 -2.03645 0.568195 0.456556 -1.66996 0.44126 -0.0280437 -1.36724 0.467583 -0.0510389 -1.35655 -0.843666 -3.71126 0.502167 -4.63132 -11.731 1.93945 -10.8616 3.94832 -10.7424 -59.4632 16.7499 -4.0228 -0.000204557 3.56578e-06 -15.8847 7.57564 -13.3443 4.63847 11.1401 1.18167 0.863829 63.476 27.217 -8.85459 9.68879e-06 -3.11768e-06 20.0234 -6.16357 -17.0827 -1.49439 -0.576583 8.22383 4.66162 1.56041 37.078 -0.943107 4.66314 21.7921 -1.15879 2.63257e-07 -52.0176 6.95342e-07 1.04828 -28.4938 0.275779 3.16737 24.5264 -1.99045 -3.86966 6.82033 0.697831 8.65701e-07 -0.23632 -5.35934e-07 
-2.0552 98.1087 53.9777 -1.28278 -3.32536 -3.5819 1.21706 0.477826 -1.13729 0.747848 0.00585502 -1.01279 0.766635 -0.00949202 -0.996558 -0.732164 -3.93061 0.442398 -4.32373 -11.6449 1.71959 -10.811 3.88185 -10.6915 -61.7041 17.4515 -3.32584 -0.000223756 1.2701e-05 -11.0102 6.69369 -9.78017 5.20671 11.2075 1.21843 0.950491 62.4937 28.3313 -7.73078 1.00413e-05 3.76582e-06 21.3079 -6.17594 -16.661 -1.5363 1.20127 3.8727 5.83219 1.586 46.4572 2.38614 1.68213 30.4094 -0.548872 -1.47199e-06 -43.6483 -9.57465e-07 1.61283 -26.344 1.10968 6.15907 26.8688 -2.58695 -5.46893 2.76369 0.684144 3.38828e-07 -0.200915 1.67792e-06 
-2.60574 98.7402 57.9742 -1.80376 -3.00774 -3.88358 1.48979 0.41022 -0.671247 0.891745 -0.0406716 -0.72116 0.904958 -0.0514992 -0.70187 -0.779785 -3.98 0.316503 -4.25462 -11.5536 1.03993 -10.831 3.90501 -10.7018 -63.2179 17.4346 -2.62868 -0.000215453 1.34392e-06 -7.51541 6.94273 -6.40183 6.00861 11.233 1.19608 0.850898 61.6033 29.0328 -6.54177 3.68534e-05 7.58717e-06 22.2926 -6.69179 -16.2666 -1.29716 2.79791 -3.3404 6.68293 1.92706 55.8284 2.44005 -0.526748 30.5622 0.144268 1.48835e-06 -25.6936 1.12689e-06 2.05297 -24.2743 0.623639 6.80721 27.6629 -1.91361 -6.2009 -0.294959 0.556584 -1.22809e-06 -0.157354 -2.9713e-07 
-2.99863 99.4896 61.7468 -1.81663 -2.49818 -2.94225 1.50738 0.362211 -0.296663 0.911874 -0.0703327 -0.47751 0.920418 -0.0778531 -0.457924 -0.943445 -3.80842 0.161722 -4.40365 -11.6004 0.125893 -10.8932 3.99722 -10.7912 -63.9962 16.4956 -1.76541 -0.000211351 4.15292e-06 -6.0409 7.44242 -4.89742 6.58268 11.2001 1.12234 0.604052 60.8401 29.1822 -5.35715 -7.83416e-07 3.00848e-06 23.2329 -8.11235 -16.5778 -1.10461 3.55719 -10.4207 6.10603 0.65896 61.2949 1.19131 -0.698356 25.2368 0.189369 2.20618e-07 -14.9509 -7.13813e-07 2.02727 -22.0236 0.371884 6.72134 27.3745 -2.13348 -6.19858 -2.81987 0.377391 -1.13774e-06 -0.0954103 -9.86018e-07 
-3.25888 100.225 65.4116 -1.73746 -2.55511 -1.88887 1.44405 0.423283 0.0407152 0.865589 -0.00419581 -0.18824 0.869014 -0.00700729 -0.171167 -1.13564 -3.45098 0.0222614 -4.62198 -11.6559 -0.733616 -10.955 4.09453 -10.8958 -64.1665 15.1492 -0.793287 -0.000173771 -1.00844e-05 -6.36338 7.86985 -6.1372 6.68831 11.1186 1.03286 0.33183 60.096 29.0988 -4.19673 -4.26062e-07 2.69945e-06 24.4697 -10.503 -18.003 -1.1926 3.99956 -15.7911 4.72841 -3.56851 62.4804 2.20791 2.78798 20.0261 -0.657774 -6.18471e-07 -16.1653 1.48809e-08 1.85457 -18.937 0.515606 6.74863 26.3899 -2.70332 -6.08024 -4.96858 0.193311 1.89888e-06 -0.0708265 2.30727e-06 
-3.45098 100.935 69.0356 -1.58375 -3.09371 -1.55267 1.34277 0.594487 0.466257 0.806717 0.159319 0.236872 0.803806 0.163709 0.249603 -1.2756 -3.01667 -0.0665617 -4.76503 -11.4244 -1.29249 -10.9879 4.13357 -10.9175 -63.9655 14.1158 0.0610712 -0.000209316 1.3126e-06 -7.60209 8.60122 -9.27507 6.39398 11.0244 0.964298 0.142896 59.1483 29.3181 -3.0055 2.64523e-05 -5.46374e-06 26.0516 -13.4908 -20.364 -1.51314 4.5023 -19.4693 3.64946 -7.68749 59.9339 5.78378 6.02955 15.1035 -0.967758 1.15872e-06 -18.9999 3.70172e-07 1.91595 -15.0991 0.120679 5.94068 24.9266 -1.68145 -5.86215 -6.72628 0.0222983 4.15867e-08 -0.00983681 6.93671e-07 
